<svg id="Layer_1" data-name="Layer 1" xmlns="http://www.w3.org/2000/svg" viewBox="0 0 1056.28 658.72"><defs><style>.cls-1{fill:#cda75c;}.cls-2{font-size:111.8px;letter-spacing:0.4em;}.cls-2,.cls-3{font-family:LinotypeGianotten-Light, Linotype Gianotten;font-weight:300;}.cls-3{font-size:40.13px;letter-spacing:0.34em;}</style></defs><path class="cls-1" d="M643.44,530.47V434.64H614.56v40.13H587.39V434.64H562A123.4,123.4,0,0,0,599,405L582,387.88A98.63,98.63,0,0,1,529.18,424V247.71A98.81,98.81,0,0,1,580,281.24l19.58-19.58a126.21,126.21,0,0,0-70.39-42.36,136,136,0,0,0-20.67-2.81H492.63a130.08,130.08,0,0,0-62.2,19.89c-33.1,21-54.83,56.43-54.83,96.59,0,40.48,22.08,76.14,55.59,97.07a130,130,0,0,0,61.44,19.41V563.64H653.26V530.47ZM492.63,427.59a102.88,102.88,0,0,1-44.93-14.06C420.24,397.2,402,368.5,402,335.84c0-33.79,19.5-63.33,48.55-79.33a102.93,102.93,0,0,1,42.06-12.42Zm65.89,102.88H529.18V446.64a130,130,0,0,0,29.34-10.21Zm56,0H587.39v-34.2h27.17Z" transform="translate(-13.22 -216.49)"/><text class="cls-2" transform="translate(0 543.01) scale(0.97 1)">CHARLESON</text><text class="cls-3" transform="translate(285.94 647.48) scale(0.97 1)">LUXURY HOTEL</text></svg>