<svg xmlns="http://www.w3.org/2000/svg" xmlns:xlink="http://www.w3.org/1999/xlink" width="500" zoomAndPan="magnify" viewBox="0 0 375 374.999991" height="500" preserveAspectRatio="xMidYMid meet" version="1.0"><defs><g/><clipPath id="640c63c421"><path d="M 37.5 50.203125 L 337.5 50.203125 L 337.5 242 L 37.5 242 Z M 37.5 50.203125 " clip-rule="nonzero"/></clipPath><clipPath id="a0ae154be4"><path d="M 135.902344 257.269531 L 238.664062 257.269531 L 238.664062 274.519531 L 135.902344 274.519531 Z M 135.902344 257.269531 " clip-rule="nonzero"/></clipPath><clipPath id="8ed1d4fa68"><path d="M 239.0625 261.652344 L 318.34375 261.652344 L 318.34375 266.167969 L 239.0625 266.167969 Z M 239.0625 261.652344 " clip-rule="nonzero"/></clipPath><clipPath id="50969756da"><path d="M 256.332031 179.738281 L 337.332031 179.738281 L 337.332031 195.253906 L 256.332031 195.253906 Z M 256.332031 179.738281 " clip-rule="nonzero"/></clipPath></defs><g clip-path="url(#640c63c421)"><path fill="#cfab5c" d="M 41.855469 114.929688 L 40.574219 114.929688 L 40.574219 50.355469 L 41.855469 50.355469 C 41.855469 67.785156 47.492188 67.011719 60.5625 63.9375 C 75.425781 60.347656 95.933594 56.503906 112.070312 57.789062 C 139.945312 60.347656 164.203125 72.394531 180.214844 91.394531 C 179.3125 92.695312 178.4375 94.007812 177.601562 95.355469 C 174.457031 100.414062 171.8125 105.71875 169.664062 111.238281 C 160.113281 82.363281 138.660156 61.519531 112.0625 59.074219 C 99.257812 58.039062 85.417969 61.121094 72.863281 67.785156 C 57.488281 76.75 41.855469 98.273438 41.855469 114.929688 Z M 279.078125 239.746094 C 247.007812 240.558594 218.851562 218.429688 206.535156 184.238281 C 204.214844 191.199219 201.203125 197.796875 197.480469 203.960938 C 196.609375 205.421875 195.6875 206.839844 194.742188 208.242188 C 214.035156 231.539062 245.214844 243.160156 279.34375 241.03125 C 307.785156 239.238281 323.679688 230.015625 337.511719 218.992188 L 337.511719 215.144531 C 323.15625 228.214844 303.421875 239.230469 279.078125 239.746094 Z M 199.976562 157.949219 C 200.179688 155.761719 200.199219 153.566406 200.089844 151.371094 C 199.902344 147.609375 199.902344 143.894531 200.078125 140.242188 C 202.125 97.246094 228.128906 62.539062 262.929688 59.332031 C 275.742188 58.308594 289.582031 61.382812 302.140625 68.046875 C 317.519531 77.019531 333.144531 98.542969 333.144531 115.199219 L 334.425781 115.199219 L 334.425781 50.625 L 333.144531 50.625 C 333.144531 68.050781 327.507812 67.28125 314.4375 64.207031 C 299.574219 60.617188 279.074219 56.773438 262.929688 58.058594 C 230.476562 61.035156 202.925781 76.863281 187.582031 101.550781 C 182.847656 109.175781 179.28125 117.644531 177.09375 126.84375 C 175.644531 132.925781 175.054688 139.175781 175.054688 145.433594 C 175.054688 148.292969 174.945312 151.179688 174.738281 154.09375 C 174.699219 154.625 174.652344 155.15625 174.609375 155.683594 C 170.257812 205.398438 136.171875 240.503906 95.9375 239.480469 C 71.589844 238.96875 51.859375 227.949219 37.507812 214.882812 L 37.507812 218.726562 C 51.34375 229.746094 67.230469 238.972656 95.675781 240.769531 C 134.40625 243.191406 169.355469 227.886719 187.429688 197.902344 C 194.234375 186.621094 198.648438 173.269531 199.980469 157.992188 C 199.976562 157.976562 199.976562 157.960938 199.976562 157.949219 Z M 199.976562 157.949219 " fill-opacity="1" fill-rule="nonzero"/></g><g clip-path="url(#a0ae154be4)"><path fill="#cfab5c" d="M 204.597656 270.171875 C 203.691406 271.078125 202.050781 269.214844 201.796875 268.511719 C 201.300781 267.148438 201.027344 265.128906 202.191406 263.996094 C 202.460938 263.730469 203.375 263.660156 204.308594 263.679688 C 204.691406 264.234375 205.007812 264.84375 205.242188 265.503906 C 205.792969 267.042969 205.847656 268.921875 204.597656 270.171875 Z M 188.035156 264.433594 C 189.066406 266.398438 188.800781 267.554688 187.285156 268.675781 C 185.769531 267.554688 185.507812 266.398438 186.539062 264.433594 C 186.75 264.027344 187.003906 263.625 187.285156 263.238281 C 187.570312 263.625 187.820312 264.027344 188.035156 264.433594 Z M 172.382812 263.996094 C 173.546875 265.128906 173.269531 267.148438 172.773438 268.511719 C 172.519531 269.214844 170.878906 271.078125 169.972656 270.171875 C 168.726562 268.921875 168.78125 267.042969 169.328125 265.503906 C 169.566406 264.84375 169.882812 264.234375 170.261719 263.679688 C 171.199219 263.660156 172.109375 263.730469 172.382812 263.996094 Z M 237.898438 261.019531 C 236.035156 257.5625 231.878906 256.679688 228.277344 257.625 C 225.421875 258.375 221.660156 260.238281 221.210938 263.519531 C 220.824219 266.335938 222.910156 268.390625 225.675781 268.398438 C 226.910156 268.398438 228.199219 267.996094 229.121094 267.148438 C 230.074219 266.261719 231.019531 264.054688 230.640625 262.789062 C 230.28125 261.570312 228.921875 261.226562 227.8125 261.777344 C 226.972656 262.199219 226.328125 263.398438 226.605469 264.460938 C 226.816406 265.261719 227.992188 265.585938 228.160156 266.375 C 228.445312 267.710938 226.917969 267.625 226 267.296875 C 224.691406 266.828125 223.453125 265.824219 223.144531 264.394531 C 221.902344 258.558594 229.664062 257.59375 233.546875 260.355469 C 237.011719 262.820312 237.441406 266.757812 235.359375 270.226562 C 232.515625 274.96875 225.605469 273.496094 221.625 270.34375 C 218.476562 267.847656 216.617188 264.820312 212.726562 263.386719 C 210.71875 262.648438 208.289062 262.59375 206.089844 262.644531 C 203.945312 259.691406 199.953125 257.898438 196.421875 258.210938 C 193.140625 258.5 189.914062 260.035156 187.410156 262.167969 C 187.367188 262.203125 187.328125 262.238281 187.285156 262.273438 C 187.246094 262.238281 187.203125 262.203125 187.164062 262.167969 C 184.660156 260.035156 181.429688 258.5 178.148438 258.210938 C 174.617188 257.898438 170.628906 259.691406 168.484375 262.644531 C 166.28125 262.59375 163.851562 262.648438 161.847656 263.386719 C 157.957031 264.820312 156.097656 267.847656 152.945312 270.34375 C 148.96875 273.496094 142.054688 274.96875 139.210938 270.226562 C 137.128906 266.757812 137.5625 262.820312 141.027344 260.355469 C 144.910156 257.59375 152.667969 258.558594 151.425781 264.394531 C 151.121094 265.824219 149.878906 266.828125 148.570312 267.296875 C 147.65625 267.625 146.125 267.710938 146.410156 266.375 C 146.582031 265.585938 147.757812 265.261719 147.964844 264.460938 C 148.246094 263.398438 147.597656 262.199219 146.757812 261.777344 C 145.652344 261.226562 144.289062 261.570312 143.929688 262.789062 C 143.554688 264.054688 144.5 266.261719 145.453125 267.148438 C 146.371094 267.996094 147.664062 268.398438 148.898438 268.398438 C 151.660156 268.390625 153.746094 266.335938 153.363281 263.519531 C 152.914062 260.238281 149.152344 258.375 146.292969 257.625 C 142.695312 256.679688 138.539062 257.5625 136.675781 261.019531 C 134.90625 264.300781 136.421875 269.191406 139.140625 271.5 C 141.863281 273.808594 145.304688 275.078125 148.882812 274.824219 C 153.085938 274.527344 155.945312 271.175781 158.777344 268.453125 C 161.375 265.957031 164.324219 263.871094 167.710938 263.925781 C 167.496094 264.367188 167.316406 264.828125 167.1875 265.304688 C 166.441406 268.023438 168.429688 269.867188 170.652344 270.898438 C 173.496094 272.222656 175.105469 269.753906 175.0625 267.054688 C 175.027344 264.882812 172.722656 263.492188 170.808594 262.96875 C 173.5 259.820312 178.449219 258.671875 182.292969 259.648438 C 184.015625 260.085938 185.648438 261.253906 186.851562 262.6875 C 184.480469 265.078125 183.746094 268.574219 187.214844 270.9375 C 187.242188 270.957031 187.265625 270.957031 187.285156 270.953125 C 187.308594 270.957031 187.332031 270.957031 187.355469 270.9375 C 190.824219 268.574219 190.09375 265.078125 187.722656 262.6875 C 188.925781 261.253906 190.554688 260.085938 192.277344 259.648438 C 196.121094 258.671875 201.070312 259.820312 203.765625 262.96875 C 201.847656 263.492188 199.546875 264.882812 199.511719 267.054688 C 199.46875 269.753906 201.078125 272.222656 203.921875 270.898438 C 206.144531 269.867188 208.128906 268.023438 207.386719 265.304688 C 207.253906 264.828125 207.074219 264.367188 206.859375 263.925781 C 210.246094 263.871094 213.199219 265.957031 215.796875 268.453125 C 218.628906 271.175781 221.484375 274.527344 225.691406 274.824219 C 229.269531 275.078125 232.707031 273.808594 235.429688 271.5 C 238.152344 269.191406 239.664062 264.300781 237.898438 261.019531 " fill-opacity="1" fill-rule="nonzero"/></g><path fill="#cfab5c" d="M 135.214844 264.457031 L 115.277344 263.976562 L 135.230469 263.371094 C 135.320312 262.78125 135.550781 262.222656 135.914062 261.757812 L 56.640625 264.160156 L 135.820312 266.0625 C 135.488281 265.59375 135.289062 265.035156 135.214844 264.457031 " fill-opacity="1" fill-rule="nonzero"/><g clip-path="url(#8ed1d4fa68)"><path fill="#cfab5c" d="M 239.765625 264.457031 L 259.707031 263.976562 L 239.753906 263.371094 C 239.664062 262.78125 239.433594 262.222656 239.070312 261.757812 L 318.34375 264.160156 L 239.164062 266.0625 C 239.496094 265.59375 239.695312 265.035156 239.765625 264.457031 " fill-opacity="1" fill-rule="nonzero"/></g><g clip-path="url(#50969756da)"><path fill="#cfab5c" d="M 256.390625 185.910156 C 256.535156 186.28125 256.671875 186.578125 256.859375 186.839844 C 258.285156 188.84375 259.960938 190.582031 262.046875 191.90625 C 264.203125 193.277344 266.546875 194.191406 269.042969 194.714844 C 271.0625 195.136719 273.109375 195.253906 275.171875 195.152344 C 278.65625 194.980469 282.019531 194.210938 285.304688 193.078125 C 287.742188 192.234375 290.105469 191.207031 292.460938 190.167969 C 294.953125 189.066406 297.445312 187.964844 300 187.015625 C 302.480469 186.089844 305.007812 185.316406 307.609375 184.796875 C 309.578125 184.402344 311.5625 184.152344 313.570312 184.046875 C 315.289062 183.953125 317.003906 183.984375 318.714844 184.132812 C 320.675781 184.304688 322.609375 184.648438 324.515625 185.128906 C 327 185.75 329.433594 186.519531 331.773438 187.5625 C 333.011719 188.113281 334.183594 188.773438 335.289062 189.550781 C 335.988281 190.042969 336.617188 190.625 337.261719 191.179688 C 337.316406 191.222656 337.351562 191.289062 337.441406 191.308594 C 337.347656 190.875 337.199219 190.472656 336.964844 190.101562 C 335.40625 187.65625 333.347656 185.746094 330.808594 184.351562 C 328.828125 183.265625 326.738281 182.453125 324.582031 181.789062 C 322.257812 181.074219 319.890625 180.546875 317.480469 180.199219 C 316.117188 180.003906 314.746094 179.875 313.367188 179.8125 C 312.234375 179.757812 311.101562 179.746094 309.972656 179.785156 C 308.472656 179.835938 306.980469 179.964844 305.496094 180.160156 C 300.292969 180.835938 295.269531 182.230469 290.332031 183.972656 C 287.6875 184.902344 285.078125 185.925781 282.445312 186.882812 C 279.9375 187.792969 277.414062 188.636719 274.816406 189.261719 C 272.925781 189.714844 271.011719 190.058594 269.066406 190.171875 C 265.617188 190.371094 262.371094 189.648438 259.335938 187.988281 C 259.003906 187.808594 258.683594 187.601562 258.382812 187.375 C 257.769531 186.90625 257.113281 186.492188 256.523438 185.988281 C 256.503906 185.96875 256.476562 185.960938 256.390625 185.910156 Z M 256.390625 185.910156 " fill-opacity="1" fill-rule="nonzero"/></g><g fill="#cfab5c" fill-opacity="0.4"><g transform="translate(34.004142, 317.635438)"><g><path d="M 18.65625 -13.78125 C 18.53125 -13.90625 18.394531 -14.082031 18.25 -14.3125 C 18.101562 -14.539062 17.960938 -14.78125 17.828125 -15.03125 C 17.796875 -15.082031 17.71875 -15.210938 17.59375 -15.421875 C 17.46875 -15.640625 17.347656 -15.828125 17.234375 -15.984375 C 17.128906 -16.140625 17.03125 -16.265625 16.9375 -16.359375 C 16.28125 -17.015625 15.550781 -17.503906 14.75 -17.828125 C 13.957031 -18.148438 13.125 -18.3125 12.25 -18.3125 C 10.976562 -18.3125 9.789062 -17.976562 8.6875 -17.3125 C 7.59375 -16.65625 6.710938 -15.695312 6.046875 -14.4375 C 5.390625 -13.175781 5.0625 -11.6875 5.0625 -9.96875 C 5.0625 -8.195312 5.378906 -6.648438 6.015625 -5.328125 C 6.660156 -4.003906 7.570312 -2.984375 8.75 -2.265625 C 9.925781 -1.546875 11.296875 -1.1875 12.859375 -1.1875 C 14.191406 -1.1875 15.367188 -1.460938 16.390625 -2.015625 C 17.421875 -2.566406 18.222656 -3.378906 18.796875 -4.453125 L 19.515625 -4.34375 L 19.375 -1.578125 C 18.3125 -0.984375 17.082031 -0.507812 15.6875 -0.15625 C 14.300781 0.195312 13.007812 0.375 11.8125 0.375 C 9.894531 0.375 8.164062 -0.0195312 6.625 -0.8125 C 5.082031 -1.601562 3.863281 -2.734375 2.96875 -4.203125 C 2.082031 -5.679688 1.640625 -7.40625 1.640625 -9.375 C 1.640625 -11.238281 2.09375 -12.9375 3 -14.46875 C 3.90625 -16 5.191406 -17.207031 6.859375 -18.09375 C 8.535156 -18.988281 10.46875 -19.4375 12.65625 -19.4375 C 14.65625 -19.4375 16.6875 -19.035156 18.75 -18.234375 L 19.34375 -13.8125 Z M 18.65625 -13.78125 "/></g></g><g transform="translate(54.892812, 317.635438)"><g><path d="M 7.25 -3.734375 C 7.25 -3.015625 7.3125 -2.484375 7.4375 -2.140625 C 7.5625 -1.796875 7.734375 -1.566406 7.953125 -1.453125 C 8.179688 -1.347656 8.523438 -1.253906 8.984375 -1.171875 C 9.566406 -1.078125 10.070312 -0.941406 10.5 -0.765625 L 10.46875 0 L 1.046875 0 C 1.035156 -0.0820312 1.023438 -0.1875 1.015625 -0.3125 C 1.003906 -0.4375 1 -0.585938 1 -0.765625 C 1.269531 -0.878906 1.519531 -0.960938 1.75 -1.015625 C 1.976562 -1.078125 2.242188 -1.144531 2.546875 -1.21875 C 2.984375 -1.300781 3.300781 -1.398438 3.5 -1.515625 C 3.695312 -1.640625 3.847656 -1.875 3.953125 -2.21875 C 4.054688 -2.5625 4.109375 -3.113281 4.109375 -3.875 L 4.109375 -15.203125 C 4.109375 -15.921875 4.046875 -16.453125 3.921875 -16.796875 C 3.804688 -17.140625 3.640625 -17.375 3.421875 -17.5 C 3.210938 -17.625 2.882812 -17.742188 2.4375 -17.859375 C 2.226562 -17.910156 1.992188 -17.972656 1.734375 -18.046875 C 1.484375 -18.128906 1.242188 -18.222656 1.015625 -18.328125 L 1.046875 -19.078125 L 10.453125 -19.078125 L 10.484375 -18.3125 C 10.046875 -18.113281 9.539062 -17.957031 8.96875 -17.84375 C 8.507812 -17.75 8.171875 -17.640625 7.953125 -17.515625 C 7.734375 -17.390625 7.5625 -17.148438 7.4375 -16.796875 C 7.3125 -16.453125 7.25 -15.914062 7.25 -15.1875 L 7.25 -10.4375 L 17.703125 -10.4375 L 17.703125 -15.34375 C 17.703125 -16 17.644531 -16.488281 17.53125 -16.8125 C 17.414062 -17.132812 17.253906 -17.359375 17.046875 -17.484375 C 16.847656 -17.609375 16.53125 -17.726562 16.09375 -17.84375 C 15.570312 -17.976562 15.117188 -18.140625 14.734375 -18.328125 L 14.765625 -19.078125 L 23.953125 -19.078125 L 23.984375 -18.3125 C 23.546875 -18.164062 23.128906 -18.039062 22.734375 -17.9375 C 22.191406 -17.789062 21.800781 -17.648438 21.5625 -17.515625 C 21.332031 -17.378906 21.15625 -17.128906 21.03125 -16.765625 C 20.914062 -16.410156 20.859375 -15.851562 20.859375 -15.09375 L 20.859375 -3.90625 C 20.859375 -3.125 20.910156 -2.554688 21.015625 -2.203125 C 21.128906 -1.847656 21.296875 -1.609375 21.515625 -1.484375 C 21.734375 -1.359375 22.097656 -1.242188 22.609375 -1.140625 C 23.171875 -1.015625 23.628906 -0.890625 23.984375 -0.765625 L 23.984375 0 L 14.765625 0 L 14.734375 -0.765625 C 14.984375 -0.898438 15.207031 -0.992188 15.40625 -1.046875 C 15.601562 -1.109375 15.875 -1.175781 16.21875 -1.25 C 16.601562 -1.3125 16.890625 -1.394531 17.078125 -1.5 C 17.273438 -1.613281 17.425781 -1.832031 17.53125 -2.15625 C 17.644531 -2.488281 17.703125 -3 17.703125 -3.6875 L 17.703125 -9.15625 L 7.25 -9.15625 Z M 7.25 -3.734375 "/></g></g><g transform="translate(79.868396, 317.635438)"><g><path d="M 5.796875 -7.796875 L 5.515625 -7.09375 C 5.078125 -5.945312 4.734375 -5.003906 4.484375 -4.265625 C 4.234375 -3.535156 4.109375 -2.96875 4.109375 -2.5625 C 4.109375 -2.207031 4.234375 -1.914062 4.484375 -1.6875 C 4.742188 -1.46875 5.039062 -1.304688 5.375 -1.203125 C 5.71875 -1.097656 6.132812 -0.992188 6.625 -0.890625 L 6.90625 -0.828125 L 6.90625 0 L -0.015625 0 L -0.015625 -0.765625 C 0.117188 -0.867188 0.253906 -0.957031 0.390625 -1.03125 C 0.535156 -1.101562 0.71875 -1.1875 0.9375 -1.28125 C 1.28125 -1.414062 1.554688 -1.554688 1.765625 -1.703125 C 1.972656 -1.847656 2.160156 -2.078125 2.328125 -2.390625 C 2.421875 -2.585938 2.519531 -2.804688 2.625 -3.046875 C 2.726562 -3.296875 2.796875 -3.460938 2.828125 -3.546875 L 3 -4 L 8.484375 -18.03125 C 8.523438 -18.132812 8.550781 -18.320312 8.5625 -18.59375 C 8.570312 -18.78125 8.585938 -18.9375 8.609375 -19.0625 C 8.640625 -19.1875 8.691406 -19.296875 8.765625 -19.390625 C 9.242188 -19.390625 9.65625 -19.34375 10 -19.25 C 10.34375 -19.15625 10.691406 -18.972656 11.046875 -18.703125 L 17.765625 -2.578125 C 17.890625 -2.273438 18.035156 -2.03125 18.203125 -1.84375 C 18.367188 -1.664062 18.539062 -1.53125 18.71875 -1.4375 C 18.90625 -1.34375 19.15625 -1.234375 19.46875 -1.109375 C 19.726562 -1.023438 20.003906 -0.910156 20.296875 -0.765625 L 20.28125 0 L 11.75 0 L 11.71875 -0.765625 C 12.175781 -0.898438 12.566406 -1.035156 12.890625 -1.171875 C 13.222656 -1.304688 13.519531 -1.492188 13.78125 -1.734375 C 14.050781 -1.984375 14.1875 -2.285156 14.1875 -2.640625 C 14.1875 -3.023438 13.695312 -4.472656 12.71875 -6.984375 C 12.65625 -7.128906 12.597656 -7.269531 12.546875 -7.40625 C 12.492188 -7.550781 12.445312 -7.679688 12.40625 -7.796875 Z M 8.984375 -16.296875 L 6.296875 -9.078125 L 11.859375 -9.078125 Z M 8.984375 -16.296875 "/></g></g><g transform="translate(100.024645, 317.635438)"><g><path d="M 10.1875 -7.9375 C 9.945312 -8.289062 9.742188 -8.550781 9.578125 -8.71875 C 9.421875 -8.882812 9.226562 -9.007812 9 -9.09375 C 8.78125 -9.1875 8.476562 -9.242188 8.09375 -9.265625 L 7.15625 -9.3125 L 7.15625 -3.671875 C 7.15625 -2.972656 7.21875 -2.457031 7.34375 -2.125 C 7.46875 -1.789062 7.632812 -1.566406 7.84375 -1.453125 C 8.050781 -1.347656 8.367188 -1.265625 8.796875 -1.203125 C 9.097656 -1.148438 9.363281 -1.09375 9.59375 -1.03125 C 9.832031 -0.976562 10.078125 -0.890625 10.328125 -0.765625 L 10.296875 0 L 1.03125 0 L 1 -0.765625 C 1.257812 -0.910156 1.503906 -1.015625 1.734375 -1.078125 C 1.960938 -1.140625 2.226562 -1.195312 2.53125 -1.25 C 2.925781 -1.300781 3.21875 -1.382812 3.40625 -1.5 C 3.59375 -1.613281 3.738281 -1.859375 3.84375 -2.234375 C 3.957031 -2.617188 4.015625 -3.226562 4.015625 -4.0625 L 4.015625 -15.15625 C 4.015625 -15.851562 3.953125 -16.375 3.828125 -16.71875 C 3.710938 -17.0625 3.546875 -17.300781 3.328125 -17.4375 C 3.109375 -17.570312 2.765625 -17.710938 2.296875 -17.859375 C 1.796875 -17.992188 1.363281 -18.144531 1 -18.3125 L 1.03125 -19.078125 L 7.78125 -19.078125 C 9.601562 -19.078125 11.195312 -18.992188 12.5625 -18.828125 C 13.9375 -18.660156 15.160156 -18.21875 16.234375 -17.5 C 17.316406 -16.789062 17.859375 -15.691406 17.859375 -14.203125 C 17.859375 -13.285156 17.597656 -12.492188 17.078125 -11.828125 C 16.566406 -11.160156 15.910156 -10.632812 15.109375 -10.25 C 14.304688 -9.875 13.445312 -9.617188 12.53125 -9.484375 C 12.644531 -9.328125 13.222656 -8.515625 14.265625 -7.046875 C 15.035156 -5.953125 15.691406 -5.035156 16.234375 -4.296875 C 16.773438 -3.566406 17.316406 -2.878906 17.859375 -2.234375 C 18.179688 -1.898438 18.46875 -1.632812 18.71875 -1.4375 C 18.976562 -1.238281 19.296875 -1.082031 19.671875 -0.96875 C 20.054688 -0.851562 20.535156 -0.796875 21.109375 -0.796875 L 21.109375 0.03125 C 20.140625 0.257812 19.28125 0.375 18.53125 0.375 C 17.5 0.375 16.550781 0.0546875 15.6875 -0.578125 C 14.820312 -1.210938 14.070312 -1.960938 13.4375 -2.828125 C 12.8125 -3.691406 12.09375 -4.800781 11.28125 -6.15625 C 10.800781 -6.976562 10.4375 -7.570312 10.1875 -7.9375 Z M 7.890625 -10.296875 C 9.140625 -10.296875 10.21875 -10.367188 11.125 -10.515625 C 12.039062 -10.660156 12.820312 -11.003906 13.46875 -11.546875 C 14.113281 -12.097656 14.4375 -12.925781 14.4375 -14.03125 C 14.4375 -15.238281 14.085938 -16.128906 13.390625 -16.703125 C 12.691406 -17.285156 11.875 -17.640625 10.9375 -17.765625 C 10 -17.898438 8.847656 -17.96875 7.484375 -17.96875 L 7.15625 -17.96875 L 7.15625 -10.296875 Z M 7.890625 -10.296875 "/></g></g><g transform="translate(121.074448, 317.635438)"><g><path d="M 4.375 -15.140625 C 4.375 -15.929688 4.3125 -16.507812 4.1875 -16.875 C 4.0625 -17.25 3.875 -17.5 3.625 -17.625 C 3.382812 -17.75 2.992188 -17.863281 2.453125 -17.96875 C 1.785156 -18.113281 1.304688 -18.234375 1.015625 -18.328125 L 1.046875 -19.078125 L 10.9375 -19.078125 L 10.9375 -18.3125 C 10.65625 -18.195312 10.398438 -18.109375 10.171875 -18.046875 C 9.953125 -17.992188 9.65625 -17.9375 9.28125 -17.875 C 8.8125 -17.789062 8.460938 -17.691406 8.234375 -17.578125 C 8.015625 -17.472656 7.84375 -17.242188 7.71875 -16.890625 C 7.601562 -16.535156 7.546875 -15.984375 7.546875 -15.234375 L 7.546875 -4.578125 C 7.546875 -3.390625 7.660156 -2.566406 7.890625 -2.109375 C 8.117188 -1.660156 8.550781 -1.375 9.1875 -1.25 C 9.820312 -1.132812 10.984375 -1.078125 12.671875 -1.078125 C 13.742188 -1.078125 14.648438 -1.21875 15.390625 -1.5 C 16.128906 -1.78125 16.71875 -2.335938 17.15625 -3.171875 L 17.375 -3.625 C 17.53125 -3.945312 17.671875 -4.21875 17.796875 -4.4375 C 17.921875 -4.65625 18.066406 -4.859375 18.234375 -5.046875 L 19.109375 -5.015625 L 18.1875 0.15625 C 16.882812 0.0507812 15.816406 0 14.984375 0 L 1.03125 0 L 1 -0.796875 C 1.144531 -0.835938 1.457031 -0.925781 1.9375 -1.0625 C 2.488281 -1.21875 2.925781 -1.363281 3.25 -1.5 C 3.570312 -1.644531 3.835938 -1.875 4.046875 -2.1875 C 4.265625 -2.507812 4.375 -2.953125 4.375 -3.515625 Z M 4.375 -15.140625 "/></g></g><g transform="translate(140.058822, 317.635438)"><g><path d="M 18.203125 0.125 C 18.046875 0.15625 17.890625 0.171875 17.734375 0.171875 C 17.554688 0.171875 17.28125 0.144531 16.90625 0.09375 C 16.53125 0.03125 16.25 0 16.0625 0 L 1.03125 0 L 1 -0.71875 C 1.300781 -0.882812 1.582031 -1.003906 1.84375 -1.078125 C 2.101562 -1.148438 2.390625 -1.210938 2.703125 -1.265625 C 3.085938 -1.328125 3.367188 -1.410156 3.546875 -1.515625 C 3.734375 -1.628906 3.875 -1.863281 3.96875 -2.21875 C 4.0625 -2.570312 4.109375 -3.132812 4.109375 -3.90625 L 4.109375 -15 C 4.109375 -15.757812 4.046875 -16.320312 3.921875 -16.6875 C 3.804688 -17.050781 3.628906 -17.300781 3.390625 -17.4375 C 3.160156 -17.582031 2.773438 -17.738281 2.234375 -17.90625 C 2.140625 -17.925781 1.96875 -17.972656 1.71875 -18.046875 C 1.46875 -18.128906 1.226562 -18.222656 1 -18.328125 L 1.03125 -19.078125 L 15.96875 -19.078125 C 16.101562 -19.078125 16.25 -19.082031 16.40625 -19.09375 C 16.570312 -19.113281 16.691406 -19.128906 16.765625 -19.140625 C 17.054688 -19.191406 17.316406 -19.21875 17.546875 -19.21875 C 17.753906 -19.21875 17.9375 -19.195312 18.09375 -19.15625 L 18.09375 -14.609375 L 17.328125 -14.578125 C 17.160156 -14.742188 17.023438 -14.925781 16.921875 -15.125 C 16.816406 -15.332031 16.691406 -15.601562 16.546875 -15.9375 C 16.359375 -16.425781 16.164062 -16.804688 15.96875 -17.078125 C 15.78125 -17.347656 15.5 -17.550781 15.125 -17.6875 C 14.582031 -17.851562 13.90625 -17.960938 13.09375 -18.015625 C 12.28125 -18.066406 11.34375 -18.09375 10.28125 -18.09375 C 9.03125 -18.09375 8.046875 -18.046875 7.328125 -17.953125 C 7.285156 -17.515625 7.265625 -17.015625 7.265625 -16.453125 L 7.265625 -10.5 L 11.484375 -10.5 C 12.253906 -10.5 12.828125 -10.554688 13.203125 -10.671875 C 13.585938 -10.796875 13.882812 -10.988281 14.09375 -11.25 C 14.3125 -11.507812 14.601562 -11.976562 14.96875 -12.65625 L 15.1875 -13.046875 L 16.03125 -13.046875 L 16.03125 -6.765625 L 15.1875 -6.71875 C 14.875 -7.5625 14.472656 -8.21875 13.984375 -8.6875 C 13.503906 -9.15625 12.863281 -9.390625 12.0625 -9.390625 L 7.265625 -9.390625 L 7.265625 -4.453125 C 7.265625 -3.429688 7.382812 -2.675781 7.625 -2.1875 C 7.863281 -1.695312 8.207031 -1.378906 8.65625 -1.234375 C 9.113281 -1.097656 9.765625 -1.03125 10.609375 -1.03125 L 12.046875 -1.03125 C 13.273438 -1.03125 14.332031 -1.164062 15.21875 -1.4375 C 16.113281 -1.71875 16.78125 -2.289062 17.21875 -3.15625 L 17.421875 -3.609375 C 17.597656 -3.984375 17.738281 -4.265625 17.84375 -4.453125 C 17.945312 -4.648438 18.082031 -4.835938 18.25 -5.015625 L 19.171875 -5.015625 Z M 18.203125 0.125 "/></g></g><g transform="translate(160.361555, 317.635438)"><g><path d="M 2.875 -5.890625 C 2.96875 -5.722656 3.046875 -5.550781 3.109375 -5.375 C 3.171875 -5.195312 3.242188 -4.96875 3.328125 -4.6875 C 3.367188 -4.59375 3.398438 -4.476562 3.421875 -4.34375 C 3.765625 -3.226562 4.414062 -2.363281 5.375 -1.75 C 6.332031 -1.144531 7.425781 -0.84375 8.65625 -0.84375 C 9.300781 -0.84375 9.925781 -0.957031 10.53125 -1.1875 C 11.144531 -1.414062 11.648438 -1.765625 12.046875 -2.234375 C 12.441406 -2.703125 12.640625 -3.265625 12.640625 -3.921875 C 12.640625 -4.503906 12.4375 -5.039062 12.03125 -5.53125 C 11.625 -6.03125 11.117188 -6.476562 10.515625 -6.875 C 9.921875 -7.269531 9.097656 -7.757812 8.046875 -8.34375 C 6.804688 -9.03125 5.800781 -9.632812 5.03125 -10.15625 C 4.257812 -10.6875 3.601562 -11.316406 3.0625 -12.046875 C 2.519531 -12.773438 2.25 -13.597656 2.25 -14.515625 C 2.25 -15.648438 2.566406 -16.582031 3.203125 -17.3125 C 3.847656 -18.050781 4.671875 -18.585938 5.671875 -18.921875 C 6.671875 -19.265625 7.726562 -19.4375 8.84375 -19.4375 C 9.800781 -19.4375 10.753906 -19.316406 11.703125 -19.078125 C 12.660156 -18.847656 13.566406 -18.515625 14.421875 -18.078125 L 14.625 -13.90625 L 13.71875 -13.90625 C 13.59375 -14.125 13.453125 -14.476562 13.296875 -14.96875 L 13.15625 -15.390625 C 12.820312 -16.347656 12.242188 -17.070312 11.421875 -17.5625 C 10.609375 -18.0625 9.671875 -18.3125 8.609375 -18.3125 C 8.066406 -18.3125 7.515625 -18.21875 6.953125 -18.03125 C 6.398438 -17.84375 5.9375 -17.554688 5.5625 -17.171875 C 5.1875 -16.785156 5 -16.3125 5 -15.75 C 5 -15.21875 5.191406 -14.722656 5.578125 -14.265625 C 5.972656 -13.804688 6.457031 -13.390625 7.03125 -13.015625 C 7.601562 -12.640625 8.398438 -12.171875 9.421875 -11.609375 C 10.722656 -10.878906 11.773438 -10.238281 12.578125 -9.6875 C 13.378906 -9.132812 14.066406 -8.46875 14.640625 -7.6875 C 15.210938 -6.90625 15.5 -6.023438 15.5 -5.046875 C 15.5 -3.816406 15.160156 -2.796875 14.484375 -1.984375 C 13.816406 -1.171875 12.945312 -0.570312 11.875 -0.1875 C 10.800781 0.1875 9.664062 0.375 8.46875 0.375 C 7.394531 0.375 6.238281 0.242188 5 -0.015625 C 3.769531 -0.285156 2.769531 -0.65625 2 -1.125 L 2 -5.859375 Z M 2.875 -5.890625 "/></g></g><g transform="translate(177.456281, 317.635438)"><g><path d="M 11.78125 -19.4375 C 13.613281 -19.4375 15.296875 -19.023438 16.828125 -18.203125 C 18.359375 -17.390625 19.578125 -16.226562 20.484375 -14.71875 C 21.390625 -13.207031 21.84375 -11.46875 21.84375 -9.5 C 21.84375 -7.5625 21.375 -5.84375 20.4375 -4.34375 C 19.507812 -2.84375 18.253906 -1.679688 16.671875 -0.859375 C 15.085938 -0.0351562 13.359375 0.375 11.484375 0.375 C 9.753906 0.375 8.132812 -0.0195312 6.625 -0.8125 C 5.125 -1.601562 3.914062 -2.734375 3 -4.203125 C 2.09375 -5.679688 1.640625 -7.390625 1.640625 -9.328125 C 1.640625 -11.472656 2.117188 -13.304688 3.078125 -14.828125 C 4.046875 -16.347656 5.300781 -17.492188 6.84375 -18.265625 C 8.394531 -19.046875 10.039062 -19.4375 11.78125 -19.4375 Z M 12.265625 -0.75 C 13.429688 -0.75 14.484375 -1.0625 15.421875 -1.6875 C 16.359375 -2.3125 17.09375 -3.210938 17.625 -4.390625 C 18.15625 -5.578125 18.421875 -6.96875 18.421875 -8.5625 C 18.421875 -10.382812 18.117188 -12.035156 17.515625 -13.515625 C 16.910156 -14.992188 16.0625 -16.160156 14.96875 -17.015625 C 13.882812 -17.878906 12.648438 -18.3125 11.265625 -18.3125 C 10.117188 -18.3125 9.070312 -18.015625 8.125 -17.421875 C 7.1875 -16.828125 6.4375 -15.941406 5.875 -14.765625 C 5.320312 -13.597656 5.046875 -12.191406 5.046875 -10.546875 C 5.046875 -8.710938 5.351562 -7.046875 5.96875 -5.546875 C 6.59375 -4.054688 7.453125 -2.882812 8.546875 -2.03125 C 9.648438 -1.175781 10.890625 -0.75 12.265625 -0.75 Z M 12.265625 -0.75 "/></g></g><g transform="translate(200.937724, 317.635438)"><g><path d="M 4.734375 -15.984375 C 4.472656 -16.390625 4.207031 -16.710938 3.9375 -16.953125 C 3.664062 -17.203125 3.390625 -17.390625 3.109375 -17.515625 C 2.835938 -17.640625 2.472656 -17.78125 2.015625 -17.9375 C 1.578125 -18.09375 1.238281 -18.21875 1 -18.3125 L 1 -19.078125 L 6.109375 -19.078125 L 19.890625 -4.8125 L 19.890625 -14.03125 C 19.890625 -14.957031 19.757812 -15.800781 19.5 -16.5625 C 19.394531 -16.875 19.25 -17.117188 19.0625 -17.296875 C 18.875 -17.472656 18.671875 -17.597656 18.453125 -17.671875 C 18.242188 -17.753906 17.957031 -17.84375 17.59375 -17.9375 C 17.53125 -17.945312 17.378906 -17.984375 17.140625 -18.046875 C 16.898438 -18.117188 16.6875 -18.203125 16.5 -18.296875 C 16.5 -18.546875 16.507812 -18.804688 16.53125 -19.078125 L 24.265625 -19.078125 L 24.265625 -18.28125 C 23.984375 -18.15625 23.695312 -18.035156 23.40625 -17.921875 C 22.695312 -17.609375 22.203125 -17.347656 21.921875 -17.140625 C 21.648438 -16.929688 21.457031 -16.609375 21.34375 -16.171875 C 21.238281 -15.742188 21.179688 -15.035156 21.171875 -14.046875 C 21.171875 -13.546875 21.160156 -12.8125 21.140625 -11.84375 C 21.128906 -11.09375 21.117188 -10.160156 21.109375 -9.046875 C 21.097656 -7.941406 21.09375 -6.648438 21.09375 -5.171875 C 21.09375 -4.523438 21.148438 -3.566406 21.265625 -2.296875 C 21.367188 -1.222656 21.425781 -0.414062 21.4375 0.125 C 21.25 0.195312 21.007812 0.234375 20.71875 0.234375 C 20.40625 0.234375 20.125 0.195312 19.875 0.125 C 19.175781 -0.726562 18.375 -1.640625 17.46875 -2.609375 L 5.90625 -14.78125 L 5.90625 -4.5 C 5.90625 -3.84375 5.988281 -3.179688 6.15625 -2.515625 C 6.226562 -2.179688 6.367188 -1.925781 6.578125 -1.75 C 6.785156 -1.570312 7.007812 -1.441406 7.25 -1.359375 C 7.488281 -1.285156 7.8125 -1.207031 8.21875 -1.125 C 8.78125 -1.039062 9.203125 -0.925781 9.484375 -0.78125 C 9.484375 -0.519531 9.46875 -0.257812 9.4375 0 L 1.171875 0 C 1.148438 -0.175781 1.140625 -0.441406 1.140625 -0.796875 L 1.8125 -0.96875 C 2.4375 -1.125 2.929688 -1.273438 3.296875 -1.421875 C 3.671875 -1.566406 3.988281 -1.804688 4.25 -2.140625 C 4.519531 -2.472656 4.679688 -2.925781 4.734375 -3.5 Z M 4.734375 -15.984375 "/></g></g><g transform="translate(226.191629, 317.635438)"><g/></g><g transform="translate(233.222879, 317.635438)"><g><path d="M 20.296875 -1.390625 C 19.273438 -0.859375 18.097656 -0.429688 16.765625 -0.109375 C 15.441406 0.210938 14.101562 0.375 12.75 0.375 C 10.539062 0.375 8.597656 -0.0234375 6.921875 -0.828125 C 5.242188 -1.628906 3.941406 -2.765625 3.015625 -4.234375 C 2.097656 -5.710938 1.640625 -7.414062 1.640625 -9.34375 C 1.640625 -11.320312 2.164062 -13.078125 3.21875 -14.609375 C 4.28125 -16.148438 5.695312 -17.335938 7.46875 -18.171875 C 9.25 -19.015625 11.1875 -19.4375 13.28125 -19.4375 C 14.4375 -19.4375 15.492188 -19.347656 16.453125 -19.171875 C 17.421875 -18.992188 18.507812 -18.691406 19.71875 -18.265625 L 20.15625 -13.84375 C 19.851562 -13.8125 19.570312 -13.796875 19.3125 -13.796875 C 19.175781 -13.910156 19.050781 -14.0625 18.9375 -14.25 C 18.820312 -14.4375 18.664062 -14.71875 18.46875 -15.09375 C 18.375 -15.28125 18.269531 -15.46875 18.15625 -15.65625 C 18.050781 -15.851562 17.957031 -16.003906 17.875 -16.109375 C 16.644531 -17.578125 14.988281 -18.3125 12.90625 -18.3125 C 11.414062 -18.3125 10.082031 -17.941406 8.90625 -17.203125 C 7.726562 -16.472656 6.804688 -15.46875 6.140625 -14.1875 C 5.472656 -12.90625 5.140625 -11.472656 5.140625 -9.890625 C 5.140625 -8.179688 5.46875 -6.640625 6.125 -5.265625 C 6.789062 -3.898438 7.71875 -2.832031 8.90625 -2.0625 C 10.09375 -1.289062 11.457031 -0.90625 13 -0.90625 C 13.800781 -0.90625 14.507812 -0.972656 15.125 -1.109375 C 15.75 -1.253906 16.34375 -1.503906 16.90625 -1.859375 C 17.019531 -2.859375 17.078125 -4.097656 17.078125 -5.578125 C 17.078125 -6.503906 16.941406 -7.34375 16.671875 -8.09375 C 16.566406 -8.40625 16.363281 -8.617188 16.0625 -8.734375 C 15.757812 -8.859375 15.359375 -8.957031 14.859375 -9.03125 C 14.410156 -9.113281 14.097656 -9.191406 13.921875 -9.265625 C 13.921875 -9.410156 13.925781 -9.554688 13.9375 -9.703125 C 13.945312 -9.859375 13.953125 -9.960938 13.953125 -10.015625 L 22.734375 -10.015625 C 22.734375 -9.960938 22.738281 -9.859375 22.75 -9.703125 C 22.757812 -9.554688 22.765625 -9.410156 22.765625 -9.265625 C 22.640625 -9.210938 22.5 -9.160156 22.34375 -9.109375 C 21.875 -8.941406 21.503906 -8.785156 21.234375 -8.640625 C 20.972656 -8.492188 20.75 -8.269531 20.5625 -7.96875 C 20.382812 -7.675781 20.296875 -7.28125 20.296875 -6.78125 Z M 20.296875 -1.390625 "/></g></g><g transform="translate(256.308815, 317.635438)"><g><path d="M 10.1875 -7.9375 C 9.945312 -8.289062 9.742188 -8.550781 9.578125 -8.71875 C 9.421875 -8.882812 9.226562 -9.007812 9 -9.09375 C 8.78125 -9.1875 8.476562 -9.242188 8.09375 -9.265625 L 7.15625 -9.3125 L 7.15625 -3.671875 C 7.15625 -2.972656 7.21875 -2.457031 7.34375 -2.125 C 7.46875 -1.789062 7.632812 -1.566406 7.84375 -1.453125 C 8.050781 -1.347656 8.367188 -1.265625 8.796875 -1.203125 C 9.097656 -1.148438 9.363281 -1.09375 9.59375 -1.03125 C 9.832031 -0.976562 10.078125 -0.890625 10.328125 -0.765625 L 10.296875 0 L 1.03125 0 L 1 -0.765625 C 1.257812 -0.910156 1.503906 -1.015625 1.734375 -1.078125 C 1.960938 -1.140625 2.226562 -1.195312 2.53125 -1.25 C 2.925781 -1.300781 3.21875 -1.382812 3.40625 -1.5 C 3.59375 -1.613281 3.738281 -1.859375 3.84375 -2.234375 C 3.957031 -2.617188 4.015625 -3.226562 4.015625 -4.0625 L 4.015625 -15.15625 C 4.015625 -15.851562 3.953125 -16.375 3.828125 -16.71875 C 3.710938 -17.0625 3.546875 -17.300781 3.328125 -17.4375 C 3.109375 -17.570312 2.765625 -17.710938 2.296875 -17.859375 C 1.796875 -17.992188 1.363281 -18.144531 1 -18.3125 L 1.03125 -19.078125 L 7.78125 -19.078125 C 9.601562 -19.078125 11.195312 -18.992188 12.5625 -18.828125 C 13.9375 -18.660156 15.160156 -18.21875 16.234375 -17.5 C 17.316406 -16.789062 17.859375 -15.691406 17.859375 -14.203125 C 17.859375 -13.285156 17.597656 -12.492188 17.078125 -11.828125 C 16.566406 -11.160156 15.910156 -10.632812 15.109375 -10.25 C 14.304688 -9.875 13.445312 -9.617188 12.53125 -9.484375 C 12.644531 -9.328125 13.222656 -8.515625 14.265625 -7.046875 C 15.035156 -5.953125 15.691406 -5.035156 16.234375 -4.296875 C 16.773438 -3.566406 17.316406 -2.878906 17.859375 -2.234375 C 18.179688 -1.898438 18.46875 -1.632812 18.71875 -1.4375 C 18.976562 -1.238281 19.296875 -1.082031 19.671875 -0.96875 C 20.054688 -0.851562 20.535156 -0.796875 21.109375 -0.796875 L 21.109375 0.03125 C 20.140625 0.257812 19.28125 0.375 18.53125 0.375 C 17.5 0.375 16.550781 0.0546875 15.6875 -0.578125 C 14.820312 -1.210938 14.070312 -1.960938 13.4375 -2.828125 C 12.8125 -3.691406 12.09375 -4.800781 11.28125 -6.15625 C 10.800781 -6.976562 10.4375 -7.570312 10.1875 -7.9375 Z M 7.890625 -10.296875 C 9.140625 -10.296875 10.21875 -10.367188 11.125 -10.515625 C 12.039062 -10.660156 12.820312 -11.003906 13.46875 -11.546875 C 14.113281 -12.097656 14.4375 -12.925781 14.4375 -14.03125 C 14.4375 -15.238281 14.085938 -16.128906 13.390625 -16.703125 C 12.691406 -17.285156 11.875 -17.640625 10.9375 -17.765625 C 10 -17.898438 8.847656 -17.96875 7.484375 -17.96875 L 7.15625 -17.96875 L 7.15625 -10.296875 Z M 7.890625 -10.296875 "/></g></g><g transform="translate(277.358618, 317.635438)"><g><path d="M 11.78125 -19.4375 C 13.613281 -19.4375 15.296875 -19.023438 16.828125 -18.203125 C 18.359375 -17.390625 19.578125 -16.226562 20.484375 -14.71875 C 21.390625 -13.207031 21.84375 -11.46875 21.84375 -9.5 C 21.84375 -7.5625 21.375 -5.84375 20.4375 -4.34375 C 19.507812 -2.84375 18.253906 -1.679688 16.671875 -0.859375 C 15.085938 -0.0351562 13.359375 0.375 11.484375 0.375 C 9.753906 0.375 8.132812 -0.0195312 6.625 -0.8125 C 5.125 -1.601562 3.914062 -2.734375 3 -4.203125 C 2.09375 -5.679688 1.640625 -7.390625 1.640625 -9.328125 C 1.640625 -11.472656 2.117188 -13.304688 3.078125 -14.828125 C 4.046875 -16.347656 5.300781 -17.492188 6.84375 -18.265625 C 8.394531 -19.046875 10.039062 -19.4375 11.78125 -19.4375 Z M 12.265625 -0.75 C 13.429688 -0.75 14.484375 -1.0625 15.421875 -1.6875 C 16.359375 -2.3125 17.09375 -3.210938 17.625 -4.390625 C 18.15625 -5.578125 18.421875 -6.96875 18.421875 -8.5625 C 18.421875 -10.382812 18.117188 -12.035156 17.515625 -13.515625 C 16.910156 -14.992188 16.0625 -16.160156 14.96875 -17.015625 C 13.882812 -17.878906 12.648438 -18.3125 11.265625 -18.3125 C 10.117188 -18.3125 9.070312 -18.015625 8.125 -17.421875 C 7.1875 -16.828125 6.4375 -15.941406 5.875 -14.765625 C 5.320312 -13.597656 5.046875 -12.191406 5.046875 -10.546875 C 5.046875 -8.710938 5.351562 -7.046875 5.96875 -5.546875 C 6.59375 -4.054688 7.453125 -2.882812 8.546875 -2.03125 C 9.648438 -1.175781 10.890625 -0.75 12.265625 -0.75 Z M 12.265625 -0.75 "/></g></g><g transform="translate(300.840062, 317.635438)"><g><path d="M 10.125 -18.3125 C 9.71875 -18.164062 9.195312 -18.03125 8.5625 -17.90625 C 8.039062 -17.789062 7.664062 -17.664062 7.4375 -17.53125 C 7.207031 -17.40625 7.03125 -17.15625 6.90625 -16.78125 C 6.78125 -16.40625 6.71875 -15.804688 6.71875 -14.984375 L 6.71875 -8.734375 C 6.71875 -6.378906 7.191406 -4.535156 8.140625 -3.203125 C 9.097656 -1.867188 10.722656 -1.203125 13.015625 -1.203125 C 17.203125 -1.203125 19.296875 -3.796875 19.296875 -8.984375 L 19.296875 -14.734375 C 19.296875 -15.609375 19.234375 -16.242188 19.109375 -16.640625 C 18.984375 -17.035156 18.796875 -17.3125 18.546875 -17.46875 C 18.296875 -17.625 17.867188 -17.773438 17.265625 -17.921875 C 16.703125 -18.066406 16.238281 -18.203125 15.875 -18.328125 L 15.875 -19.078125 L 23.78125 -19.078125 L 23.796875 -18.3125 C 23.648438 -18.226562 23.492188 -18.164062 23.328125 -18.125 C 23.160156 -18.082031 22.929688 -18.035156 22.640625 -17.984375 C 22.273438 -17.921875 21.976562 -17.859375 21.75 -17.796875 C 21.53125 -17.734375 21.320312 -17.625 21.125 -17.46875 C 20.9375 -17.3125 20.804688 -17.101562 20.734375 -16.84375 C 20.578125 -16.3125 20.5 -15.6875 20.5 -14.96875 C 20.5 -14.5 20.503906 -13.757812 20.515625 -12.75 C 20.535156 -11.726562 20.546875 -10.960938 20.546875 -10.453125 C 20.546875 -8.234375 20.351562 -6.351562 19.96875 -4.8125 C 19.582031 -3.28125 18.765625 -2.03125 17.515625 -1.0625 C 16.273438 -0.101562 14.445312 0.375 12.03125 0.375 C 10.625 0.375 9.3125 0.15625 8.09375 -0.28125 C 6.882812 -0.726562 5.878906 -1.421875 5.078125 -2.359375 C 4.285156 -3.296875 3.816406 -4.46875 3.671875 -5.875 C 3.554688 -6.882812 3.5 -8.171875 3.5 -9.734375 C 3.5 -10.628906 3.515625 -11.515625 3.546875 -12.390625 C 3.566406 -13.566406 3.578125 -14.4375 3.578125 -15 C 3.578125 -15.71875 3.523438 -16.28125 3.421875 -16.6875 C 3.328125 -17.070312 3.085938 -17.363281 2.703125 -17.5625 C 2.316406 -17.757812 1.796875 -17.941406 1.140625 -18.109375 C 0.816406 -18.191406 0.5625 -18.265625 0.375 -18.328125 L 0.421875 -19.078125 L 10.09375 -19.078125 Z M 10.125 -18.3125 "/></g></g><g transform="translate(324.848849, 317.635438)"><g><path d="M 4.109375 -15.109375 C 4.109375 -15.835938 4.046875 -16.375 3.921875 -16.71875 C 3.796875 -17.070312 3.625 -17.316406 3.40625 -17.453125 C 3.1875 -17.597656 2.832031 -17.738281 2.34375 -17.875 C 1.851562 -18.007812 1.410156 -18.160156 1.015625 -18.328125 L 1.046875 -19.078125 L 8.3125 -19.078125 C 10.144531 -19.078125 11.75 -18.972656 13.125 -18.765625 C 14.5 -18.566406 15.695312 -18.078125 16.71875 -17.296875 C 17.75 -16.523438 18.265625 -15.34375 18.265625 -13.75 C 18.265625 -12.476562 17.960938 -11.410156 17.359375 -10.546875 C 16.753906 -9.691406 15.941406 -9.054688 14.921875 -8.640625 C 13.898438 -8.234375 12.765625 -8.03125 11.515625 -8.03125 C 11.285156 -8.03125 10.921875 -8.066406 10.421875 -8.140625 C 9.929688 -8.222656 9.484375 -8.335938 9.078125 -8.484375 C 8.671875 -8.628906 8.46875 -8.800781 8.46875 -9 C 8.46875 -9.175781 8.679688 -9.265625 9.109375 -9.265625 L 9.328125 -9.265625 C 10.515625 -9.265625 11.5 -9.367188 12.28125 -9.578125 C 13.070312 -9.785156 13.695312 -10.203125 14.15625 -10.828125 C 14.625 -11.460938 14.859375 -12.367188 14.859375 -13.546875 C 14.859375 -14.628906 14.554688 -15.503906 13.953125 -16.171875 C 13.359375 -16.847656 12.597656 -17.328125 11.671875 -17.609375 C 10.742188 -17.898438 9.75 -18.046875 8.6875 -18.046875 C 8.257812 -18.046875 7.785156 -18.019531 7.265625 -17.96875 L 7.265625 -4.03125 C 7.265625 -3.195312 7.316406 -2.59375 7.421875 -2.21875 C 7.535156 -1.851562 7.691406 -1.609375 7.890625 -1.484375 C 8.097656 -1.367188 8.4375 -1.273438 8.90625 -1.203125 C 9.539062 -1.097656 10.101562 -0.953125 10.59375 -0.765625 L 10.5625 0 L 1.046875 0 L 1 -0.765625 L 1.46875 -0.890625 C 2.039062 -1.046875 2.5 -1.195312 2.84375 -1.34375 C 3.195312 -1.5 3.492188 -1.726562 3.734375 -2.03125 C 3.984375 -2.332031 4.109375 -2.738281 4.109375 -3.25 Z M 4.109375 -15.109375 "/></g></g></g><g fill="#cfab5c" fill-opacity="1"><g transform="translate(32.517369, 315.799431)"><g><path d="M 18.65625 -13.78125 C 18.53125 -13.90625 18.394531 -14.082031 18.25 -14.3125 C 18.101562 -14.539062 17.960938 -14.78125 17.828125 -15.03125 C 17.796875 -15.082031 17.71875 -15.210938 17.59375 -15.421875 C 17.46875 -15.640625 17.347656 -15.828125 17.234375 -15.984375 C 17.128906 -16.140625 17.03125 -16.265625 16.9375 -16.359375 C 16.28125 -17.015625 15.550781 -17.503906 14.75 -17.828125 C 13.957031 -18.148438 13.125 -18.3125 12.25 -18.3125 C 10.976562 -18.3125 9.789062 -17.976562 8.6875 -17.3125 C 7.59375 -16.65625 6.710938 -15.695312 6.046875 -14.4375 C 5.390625 -13.175781 5.0625 -11.6875 5.0625 -9.96875 C 5.0625 -8.195312 5.378906 -6.648438 6.015625 -5.328125 C 6.660156 -4.003906 7.570312 -2.984375 8.75 -2.265625 C 9.925781 -1.546875 11.296875 -1.1875 12.859375 -1.1875 C 14.191406 -1.1875 15.367188 -1.460938 16.390625 -2.015625 C 17.421875 -2.566406 18.222656 -3.378906 18.796875 -4.453125 L 19.515625 -4.34375 L 19.375 -1.578125 C 18.3125 -0.984375 17.082031 -0.507812 15.6875 -0.15625 C 14.300781 0.195312 13.007812 0.375 11.8125 0.375 C 9.894531 0.375 8.164062 -0.0195312 6.625 -0.8125 C 5.082031 -1.601562 3.863281 -2.734375 2.96875 -4.203125 C 2.082031 -5.679688 1.640625 -7.40625 1.640625 -9.375 C 1.640625 -11.238281 2.09375 -12.9375 3 -14.46875 C 3.90625 -16 5.191406 -17.207031 6.859375 -18.09375 C 8.535156 -18.988281 10.46875 -19.4375 12.65625 -19.4375 C 14.65625 -19.4375 16.6875 -19.035156 18.75 -18.234375 L 19.34375 -13.8125 Z M 18.65625 -13.78125 "/></g></g><g transform="translate(53.40604, 315.799431)"><g><path d="M 7.25 -3.734375 C 7.25 -3.015625 7.3125 -2.484375 7.4375 -2.140625 C 7.5625 -1.796875 7.734375 -1.566406 7.953125 -1.453125 C 8.179688 -1.347656 8.523438 -1.253906 8.984375 -1.171875 C 9.566406 -1.078125 10.070312 -0.941406 10.5 -0.765625 L 10.46875 0 L 1.046875 0 C 1.035156 -0.0820312 1.023438 -0.1875 1.015625 -0.3125 C 1.003906 -0.4375 1 -0.585938 1 -0.765625 C 1.269531 -0.878906 1.519531 -0.960938 1.75 -1.015625 C 1.976562 -1.078125 2.242188 -1.144531 2.546875 -1.21875 C 2.984375 -1.300781 3.300781 -1.398438 3.5 -1.515625 C 3.695312 -1.640625 3.847656 -1.875 3.953125 -2.21875 C 4.054688 -2.5625 4.109375 -3.113281 4.109375 -3.875 L 4.109375 -15.203125 C 4.109375 -15.921875 4.046875 -16.453125 3.921875 -16.796875 C 3.804688 -17.140625 3.640625 -17.375 3.421875 -17.5 C 3.210938 -17.625 2.882812 -17.742188 2.4375 -17.859375 C 2.226562 -17.910156 1.992188 -17.972656 1.734375 -18.046875 C 1.484375 -18.128906 1.242188 -18.222656 1.015625 -18.328125 L 1.046875 -19.078125 L 10.453125 -19.078125 L 10.484375 -18.3125 C 10.046875 -18.113281 9.539062 -17.957031 8.96875 -17.84375 C 8.507812 -17.75 8.171875 -17.640625 7.953125 -17.515625 C 7.734375 -17.390625 7.5625 -17.148438 7.4375 -16.796875 C 7.3125 -16.453125 7.25 -15.914062 7.25 -15.1875 L 7.25 -10.4375 L 17.703125 -10.4375 L 17.703125 -15.34375 C 17.703125 -16 17.644531 -16.488281 17.53125 -16.8125 C 17.414062 -17.132812 17.253906 -17.359375 17.046875 -17.484375 C 16.847656 -17.609375 16.53125 -17.726562 16.09375 -17.84375 C 15.570312 -17.976562 15.117188 -18.140625 14.734375 -18.328125 L 14.765625 -19.078125 L 23.953125 -19.078125 L 23.984375 -18.3125 C 23.546875 -18.164062 23.128906 -18.039062 22.734375 -17.9375 C 22.191406 -17.789062 21.800781 -17.648438 21.5625 -17.515625 C 21.332031 -17.378906 21.15625 -17.128906 21.03125 -16.765625 C 20.914062 -16.410156 20.859375 -15.851562 20.859375 -15.09375 L 20.859375 -3.90625 C 20.859375 -3.125 20.910156 -2.554688 21.015625 -2.203125 C 21.128906 -1.847656 21.296875 -1.609375 21.515625 -1.484375 C 21.734375 -1.359375 22.097656 -1.242188 22.609375 -1.140625 C 23.171875 -1.015625 23.628906 -0.890625 23.984375 -0.765625 L 23.984375 0 L 14.765625 0 L 14.734375 -0.765625 C 14.984375 -0.898438 15.207031 -0.992188 15.40625 -1.046875 C 15.601562 -1.109375 15.875 -1.175781 16.21875 -1.25 C 16.601562 -1.3125 16.890625 -1.394531 17.078125 -1.5 C 17.273438 -1.613281 17.425781 -1.832031 17.53125 -2.15625 C 17.644531 -2.488281 17.703125 -3 17.703125 -3.6875 L 17.703125 -9.15625 L 7.25 -9.15625 Z M 7.25 -3.734375 "/></g></g><g transform="translate(78.381624, 315.799431)"><g><path d="M 5.796875 -7.796875 L 5.515625 -7.09375 C 5.078125 -5.945312 4.734375 -5.003906 4.484375 -4.265625 C 4.234375 -3.535156 4.109375 -2.96875 4.109375 -2.5625 C 4.109375 -2.207031 4.234375 -1.914062 4.484375 -1.6875 C 4.742188 -1.46875 5.039062 -1.304688 5.375 -1.203125 C 5.71875 -1.097656 6.132812 -0.992188 6.625 -0.890625 L 6.90625 -0.828125 L 6.90625 0 L -0.015625 0 L -0.015625 -0.765625 C 0.117188 -0.867188 0.253906 -0.957031 0.390625 -1.03125 C 0.535156 -1.101562 0.71875 -1.1875 0.9375 -1.28125 C 1.28125 -1.414062 1.554688 -1.554688 1.765625 -1.703125 C 1.972656 -1.847656 2.160156 -2.078125 2.328125 -2.390625 C 2.421875 -2.585938 2.519531 -2.804688 2.625 -3.046875 C 2.726562 -3.296875 2.796875 -3.460938 2.828125 -3.546875 L 3 -4 L 8.484375 -18.03125 C 8.523438 -18.132812 8.550781 -18.320312 8.5625 -18.59375 C 8.570312 -18.78125 8.585938 -18.9375 8.609375 -19.0625 C 8.640625 -19.1875 8.691406 -19.296875 8.765625 -19.390625 C 9.242188 -19.390625 9.65625 -19.34375 10 -19.25 C 10.34375 -19.15625 10.691406 -18.972656 11.046875 -18.703125 L 17.765625 -2.578125 C 17.890625 -2.273438 18.035156 -2.03125 18.203125 -1.84375 C 18.367188 -1.664062 18.539062 -1.53125 18.71875 -1.4375 C 18.90625 -1.34375 19.15625 -1.234375 19.46875 -1.109375 C 19.726562 -1.023438 20.003906 -0.910156 20.296875 -0.765625 L 20.28125 0 L 11.75 0 L 11.71875 -0.765625 C 12.175781 -0.898438 12.566406 -1.035156 12.890625 -1.171875 C 13.222656 -1.304688 13.519531 -1.492188 13.78125 -1.734375 C 14.050781 -1.984375 14.1875 -2.285156 14.1875 -2.640625 C 14.1875 -3.023438 13.695312 -4.472656 12.71875 -6.984375 C 12.65625 -7.128906 12.597656 -7.269531 12.546875 -7.40625 C 12.492188 -7.550781 12.445312 -7.679688 12.40625 -7.796875 Z M 8.984375 -16.296875 L 6.296875 -9.078125 L 11.859375 -9.078125 Z M 8.984375 -16.296875 "/></g></g><g transform="translate(98.537873, 315.799431)"><g><path d="M 10.1875 -7.9375 C 9.945312 -8.289062 9.742188 -8.550781 9.578125 -8.71875 C 9.421875 -8.882812 9.226562 -9.007812 9 -9.09375 C 8.78125 -9.1875 8.476562 -9.242188 8.09375 -9.265625 L 7.15625 -9.3125 L 7.15625 -3.671875 C 7.15625 -2.972656 7.21875 -2.457031 7.34375 -2.125 C 7.46875 -1.789062 7.632812 -1.566406 7.84375 -1.453125 C 8.050781 -1.347656 8.367188 -1.265625 8.796875 -1.203125 C 9.097656 -1.148438 9.363281 -1.09375 9.59375 -1.03125 C 9.832031 -0.976562 10.078125 -0.890625 10.328125 -0.765625 L 10.296875 0 L 1.03125 0 L 1 -0.765625 C 1.257812 -0.910156 1.503906 -1.015625 1.734375 -1.078125 C 1.960938 -1.140625 2.226562 -1.195312 2.53125 -1.25 C 2.925781 -1.300781 3.21875 -1.382812 3.40625 -1.5 C 3.59375 -1.613281 3.738281 -1.859375 3.84375 -2.234375 C 3.957031 -2.617188 4.015625 -3.226562 4.015625 -4.0625 L 4.015625 -15.15625 C 4.015625 -15.851562 3.953125 -16.375 3.828125 -16.71875 C 3.710938 -17.0625 3.546875 -17.300781 3.328125 -17.4375 C 3.109375 -17.570312 2.765625 -17.710938 2.296875 -17.859375 C 1.796875 -17.992188 1.363281 -18.144531 1 -18.3125 L 1.03125 -19.078125 L 7.78125 -19.078125 C 9.601562 -19.078125 11.195312 -18.992188 12.5625 -18.828125 C 13.9375 -18.660156 15.160156 -18.21875 16.234375 -17.5 C 17.316406 -16.789062 17.859375 -15.691406 17.859375 -14.203125 C 17.859375 -13.285156 17.597656 -12.492188 17.078125 -11.828125 C 16.566406 -11.160156 15.910156 -10.632812 15.109375 -10.25 C 14.304688 -9.875 13.445312 -9.617188 12.53125 -9.484375 C 12.644531 -9.328125 13.222656 -8.515625 14.265625 -7.046875 C 15.035156 -5.953125 15.691406 -5.035156 16.234375 -4.296875 C 16.773438 -3.566406 17.316406 -2.878906 17.859375 -2.234375 C 18.179688 -1.898438 18.46875 -1.632812 18.71875 -1.4375 C 18.976562 -1.238281 19.296875 -1.082031 19.671875 -0.96875 C 20.054688 -0.851562 20.535156 -0.796875 21.109375 -0.796875 L 21.109375 0.03125 C 20.140625 0.257812 19.28125 0.375 18.53125 0.375 C 17.5 0.375 16.550781 0.0546875 15.6875 -0.578125 C 14.820312 -1.210938 14.070312 -1.960938 13.4375 -2.828125 C 12.8125 -3.691406 12.09375 -4.800781 11.28125 -6.15625 C 10.800781 -6.976562 10.4375 -7.570312 10.1875 -7.9375 Z M 7.890625 -10.296875 C 9.140625 -10.296875 10.21875 -10.367188 11.125 -10.515625 C 12.039062 -10.660156 12.820312 -11.003906 13.46875 -11.546875 C 14.113281 -12.097656 14.4375 -12.925781 14.4375 -14.03125 C 14.4375 -15.238281 14.085938 -16.128906 13.390625 -16.703125 C 12.691406 -17.285156 11.875 -17.640625 10.9375 -17.765625 C 10 -17.898438 8.847656 -17.96875 7.484375 -17.96875 L 7.15625 -17.96875 L 7.15625 -10.296875 Z M 7.890625 -10.296875 "/></g></g><g transform="translate(119.587676, 315.799431)"><g><path d="M 4.375 -15.140625 C 4.375 -15.929688 4.3125 -16.507812 4.1875 -16.875 C 4.0625 -17.25 3.875 -17.5 3.625 -17.625 C 3.382812 -17.75 2.992188 -17.863281 2.453125 -17.96875 C 1.785156 -18.113281 1.304688 -18.234375 1.015625 -18.328125 L 1.046875 -19.078125 L 10.9375 -19.078125 L 10.9375 -18.3125 C 10.65625 -18.195312 10.398438 -18.109375 10.171875 -18.046875 C 9.953125 -17.992188 9.65625 -17.9375 9.28125 -17.875 C 8.8125 -17.789062 8.460938 -17.691406 8.234375 -17.578125 C 8.015625 -17.472656 7.84375 -17.242188 7.71875 -16.890625 C 7.601562 -16.535156 7.546875 -15.984375 7.546875 -15.234375 L 7.546875 -4.578125 C 7.546875 -3.390625 7.660156 -2.566406 7.890625 -2.109375 C 8.117188 -1.660156 8.550781 -1.375 9.1875 -1.25 C 9.820312 -1.132812 10.984375 -1.078125 12.671875 -1.078125 C 13.742188 -1.078125 14.648438 -1.21875 15.390625 -1.5 C 16.128906 -1.78125 16.71875 -2.335938 17.15625 -3.171875 L 17.375 -3.625 C 17.53125 -3.945312 17.671875 -4.21875 17.796875 -4.4375 C 17.921875 -4.65625 18.066406 -4.859375 18.234375 -5.046875 L 19.109375 -5.015625 L 18.1875 0.15625 C 16.882812 0.0507812 15.816406 0 14.984375 0 L 1.03125 0 L 1 -0.796875 C 1.144531 -0.835938 1.457031 -0.925781 1.9375 -1.0625 C 2.488281 -1.21875 2.925781 -1.363281 3.25 -1.5 C 3.570312 -1.644531 3.835938 -1.875 4.046875 -2.1875 C 4.265625 -2.507812 4.375 -2.953125 4.375 -3.515625 Z M 4.375 -15.140625 "/></g></g><g transform="translate(138.57205, 315.799431)"><g><path d="M 18.203125 0.125 C 18.046875 0.15625 17.890625 0.171875 17.734375 0.171875 C 17.554688 0.171875 17.28125 0.144531 16.90625 0.09375 C 16.53125 0.03125 16.25 0 16.0625 0 L 1.03125 0 L 1 -0.71875 C 1.300781 -0.882812 1.582031 -1.003906 1.84375 -1.078125 C 2.101562 -1.148438 2.390625 -1.210938 2.703125 -1.265625 C 3.085938 -1.328125 3.367188 -1.410156 3.546875 -1.515625 C 3.734375 -1.628906 3.875 -1.863281 3.96875 -2.21875 C 4.0625 -2.570312 4.109375 -3.132812 4.109375 -3.90625 L 4.109375 -15 C 4.109375 -15.757812 4.046875 -16.320312 3.921875 -16.6875 C 3.804688 -17.050781 3.628906 -17.300781 3.390625 -17.4375 C 3.160156 -17.582031 2.773438 -17.738281 2.234375 -17.90625 C 2.140625 -17.925781 1.96875 -17.972656 1.71875 -18.046875 C 1.46875 -18.128906 1.226562 -18.222656 1 -18.328125 L 1.03125 -19.078125 L 15.96875 -19.078125 C 16.101562 -19.078125 16.25 -19.082031 16.40625 -19.09375 C 16.570312 -19.113281 16.691406 -19.128906 16.765625 -19.140625 C 17.054688 -19.191406 17.316406 -19.21875 17.546875 -19.21875 C 17.753906 -19.21875 17.9375 -19.195312 18.09375 -19.15625 L 18.09375 -14.609375 L 17.328125 -14.578125 C 17.160156 -14.742188 17.023438 -14.925781 16.921875 -15.125 C 16.816406 -15.332031 16.691406 -15.601562 16.546875 -15.9375 C 16.359375 -16.425781 16.164062 -16.804688 15.96875 -17.078125 C 15.78125 -17.347656 15.5 -17.550781 15.125 -17.6875 C 14.582031 -17.851562 13.90625 -17.960938 13.09375 -18.015625 C 12.28125 -18.066406 11.34375 -18.09375 10.28125 -18.09375 C 9.03125 -18.09375 8.046875 -18.046875 7.328125 -17.953125 C 7.285156 -17.515625 7.265625 -17.015625 7.265625 -16.453125 L 7.265625 -10.5 L 11.484375 -10.5 C 12.253906 -10.5 12.828125 -10.554688 13.203125 -10.671875 C 13.585938 -10.796875 13.882812 -10.988281 14.09375 -11.25 C 14.3125 -11.507812 14.601562 -11.976562 14.96875 -12.65625 L 15.1875 -13.046875 L 16.03125 -13.046875 L 16.03125 -6.765625 L 15.1875 -6.71875 C 14.875 -7.5625 14.472656 -8.21875 13.984375 -8.6875 C 13.503906 -9.15625 12.863281 -9.390625 12.0625 -9.390625 L 7.265625 -9.390625 L 7.265625 -4.453125 C 7.265625 -3.429688 7.382812 -2.675781 7.625 -2.1875 C 7.863281 -1.695312 8.207031 -1.378906 8.65625 -1.234375 C 9.113281 -1.097656 9.765625 -1.03125 10.609375 -1.03125 L 12.046875 -1.03125 C 13.273438 -1.03125 14.332031 -1.164062 15.21875 -1.4375 C 16.113281 -1.71875 16.78125 -2.289062 17.21875 -3.15625 L 17.421875 -3.609375 C 17.597656 -3.984375 17.738281 -4.265625 17.84375 -4.453125 C 17.945312 -4.648438 18.082031 -4.835938 18.25 -5.015625 L 19.171875 -5.015625 Z M 18.203125 0.125 "/></g></g><g transform="translate(158.874783, 315.799431)"><g><path d="M 2.875 -5.890625 C 2.96875 -5.722656 3.046875 -5.550781 3.109375 -5.375 C 3.171875 -5.195312 3.242188 -4.96875 3.328125 -4.6875 C 3.367188 -4.59375 3.398438 -4.476562 3.421875 -4.34375 C 3.765625 -3.226562 4.414062 -2.363281 5.375 -1.75 C 6.332031 -1.144531 7.425781 -0.84375 8.65625 -0.84375 C 9.300781 -0.84375 9.925781 -0.957031 10.53125 -1.1875 C 11.144531 -1.414062 11.648438 -1.765625 12.046875 -2.234375 C 12.441406 -2.703125 12.640625 -3.265625 12.640625 -3.921875 C 12.640625 -4.503906 12.4375 -5.039062 12.03125 -5.53125 C 11.625 -6.03125 11.117188 -6.476562 10.515625 -6.875 C 9.921875 -7.269531 9.097656 -7.757812 8.046875 -8.34375 C 6.804688 -9.03125 5.800781 -9.632812 5.03125 -10.15625 C 4.257812 -10.6875 3.601562 -11.316406 3.0625 -12.046875 C 2.519531 -12.773438 2.25 -13.597656 2.25 -14.515625 C 2.25 -15.648438 2.566406 -16.582031 3.203125 -17.3125 C 3.847656 -18.050781 4.671875 -18.585938 5.671875 -18.921875 C 6.671875 -19.265625 7.726562 -19.4375 8.84375 -19.4375 C 9.800781 -19.4375 10.753906 -19.316406 11.703125 -19.078125 C 12.660156 -18.847656 13.566406 -18.515625 14.421875 -18.078125 L 14.625 -13.90625 L 13.71875 -13.90625 C 13.59375 -14.125 13.453125 -14.476562 13.296875 -14.96875 L 13.15625 -15.390625 C 12.820312 -16.347656 12.242188 -17.070312 11.421875 -17.5625 C 10.609375 -18.0625 9.671875 -18.3125 8.609375 -18.3125 C 8.066406 -18.3125 7.515625 -18.21875 6.953125 -18.03125 C 6.398438 -17.84375 5.9375 -17.554688 5.5625 -17.171875 C 5.1875 -16.785156 5 -16.3125 5 -15.75 C 5 -15.21875 5.191406 -14.722656 5.578125 -14.265625 C 5.972656 -13.804688 6.457031 -13.390625 7.03125 -13.015625 C 7.601562 -12.640625 8.398438 -12.171875 9.421875 -11.609375 C 10.722656 -10.878906 11.773438 -10.238281 12.578125 -9.6875 C 13.378906 -9.132812 14.066406 -8.46875 14.640625 -7.6875 C 15.210938 -6.90625 15.5 -6.023438 15.5 -5.046875 C 15.5 -3.816406 15.160156 -2.796875 14.484375 -1.984375 C 13.816406 -1.171875 12.945312 -0.570312 11.875 -0.1875 C 10.800781 0.1875 9.664062 0.375 8.46875 0.375 C 7.394531 0.375 6.238281 0.242188 5 -0.015625 C 3.769531 -0.285156 2.769531 -0.65625 2 -1.125 L 2 -5.859375 Z M 2.875 -5.890625 "/></g></g><g transform="translate(175.969508, 315.799431)"><g><path d="M 11.78125 -19.4375 C 13.613281 -19.4375 15.296875 -19.023438 16.828125 -18.203125 C 18.359375 -17.390625 19.578125 -16.226562 20.484375 -14.71875 C 21.390625 -13.207031 21.84375 -11.46875 21.84375 -9.5 C 21.84375 -7.5625 21.375 -5.84375 20.4375 -4.34375 C 19.507812 -2.84375 18.253906 -1.679688 16.671875 -0.859375 C 15.085938 -0.0351562 13.359375 0.375 11.484375 0.375 C 9.753906 0.375 8.132812 -0.0195312 6.625 -0.8125 C 5.125 -1.601562 3.914062 -2.734375 3 -4.203125 C 2.09375 -5.679688 1.640625 -7.390625 1.640625 -9.328125 C 1.640625 -11.472656 2.117188 -13.304688 3.078125 -14.828125 C 4.046875 -16.347656 5.300781 -17.492188 6.84375 -18.265625 C 8.394531 -19.046875 10.039062 -19.4375 11.78125 -19.4375 Z M 12.265625 -0.75 C 13.429688 -0.75 14.484375 -1.0625 15.421875 -1.6875 C 16.359375 -2.3125 17.09375 -3.210938 17.625 -4.390625 C 18.15625 -5.578125 18.421875 -6.96875 18.421875 -8.5625 C 18.421875 -10.382812 18.117188 -12.035156 17.515625 -13.515625 C 16.910156 -14.992188 16.0625 -16.160156 14.96875 -17.015625 C 13.882812 -17.878906 12.648438 -18.3125 11.265625 -18.3125 C 10.117188 -18.3125 9.070312 -18.015625 8.125 -17.421875 C 7.1875 -16.828125 6.4375 -15.941406 5.875 -14.765625 C 5.320312 -13.597656 5.046875 -12.191406 5.046875 -10.546875 C 5.046875 -8.710938 5.351562 -7.046875 5.96875 -5.546875 C 6.59375 -4.054688 7.453125 -2.882812 8.546875 -2.03125 C 9.648438 -1.175781 10.890625 -0.75 12.265625 -0.75 Z M 12.265625 -0.75 "/></g></g><g transform="translate(199.450952, 315.799431)"><g><path d="M 4.734375 -15.984375 C 4.472656 -16.390625 4.207031 -16.710938 3.9375 -16.953125 C 3.664062 -17.203125 3.390625 -17.390625 3.109375 -17.515625 C 2.835938 -17.640625 2.472656 -17.78125 2.015625 -17.9375 C 1.578125 -18.09375 1.238281 -18.21875 1 -18.3125 L 1 -19.078125 L 6.109375 -19.078125 L 19.890625 -4.8125 L 19.890625 -14.03125 C 19.890625 -14.957031 19.757812 -15.800781 19.5 -16.5625 C 19.394531 -16.875 19.25 -17.117188 19.0625 -17.296875 C 18.875 -17.472656 18.671875 -17.597656 18.453125 -17.671875 C 18.242188 -17.753906 17.957031 -17.84375 17.59375 -17.9375 C 17.53125 -17.945312 17.378906 -17.984375 17.140625 -18.046875 C 16.898438 -18.117188 16.6875 -18.203125 16.5 -18.296875 C 16.5 -18.546875 16.507812 -18.804688 16.53125 -19.078125 L 24.265625 -19.078125 L 24.265625 -18.28125 C 23.984375 -18.15625 23.695312 -18.035156 23.40625 -17.921875 C 22.695312 -17.609375 22.203125 -17.347656 21.921875 -17.140625 C 21.648438 -16.929688 21.457031 -16.609375 21.34375 -16.171875 C 21.238281 -15.742188 21.179688 -15.035156 21.171875 -14.046875 C 21.171875 -13.546875 21.160156 -12.8125 21.140625 -11.84375 C 21.128906 -11.09375 21.117188 -10.160156 21.109375 -9.046875 C 21.097656 -7.941406 21.09375 -6.648438 21.09375 -5.171875 C 21.09375 -4.523438 21.148438 -3.566406 21.265625 -2.296875 C 21.367188 -1.222656 21.425781 -0.414062 21.4375 0.125 C 21.25 0.195312 21.007812 0.234375 20.71875 0.234375 C 20.40625 0.234375 20.125 0.195312 19.875 0.125 C 19.175781 -0.726562 18.375 -1.640625 17.46875 -2.609375 L 5.90625 -14.78125 L 5.90625 -4.5 C 5.90625 -3.84375 5.988281 -3.179688 6.15625 -2.515625 C 6.226562 -2.179688 6.367188 -1.925781 6.578125 -1.75 C 6.785156 -1.570312 7.007812 -1.441406 7.25 -1.359375 C 7.488281 -1.285156 7.8125 -1.207031 8.21875 -1.125 C 8.78125 -1.039062 9.203125 -0.925781 9.484375 -0.78125 C 9.484375 -0.519531 9.46875 -0.257812 9.4375 0 L 1.171875 0 C 1.148438 -0.175781 1.140625 -0.441406 1.140625 -0.796875 L 1.8125 -0.96875 C 2.4375 -1.125 2.929688 -1.273438 3.296875 -1.421875 C 3.671875 -1.566406 3.988281 -1.804688 4.25 -2.140625 C 4.519531 -2.472656 4.679688 -2.925781 4.734375 -3.5 Z M 4.734375 -15.984375 "/></g></g><g transform="translate(224.704857, 315.799431)"><g/></g><g transform="translate(231.736106, 315.799431)"><g><path d="M 20.296875 -1.390625 C 19.273438 -0.859375 18.097656 -0.429688 16.765625 -0.109375 C 15.441406 0.210938 14.101562 0.375 12.75 0.375 C 10.539062 0.375 8.597656 -0.0234375 6.921875 -0.828125 C 5.242188 -1.628906 3.941406 -2.765625 3.015625 -4.234375 C 2.097656 -5.710938 1.640625 -7.414062 1.640625 -9.34375 C 1.640625 -11.320312 2.164062 -13.078125 3.21875 -14.609375 C 4.28125 -16.148438 5.695312 -17.335938 7.46875 -18.171875 C 9.25 -19.015625 11.1875 -19.4375 13.28125 -19.4375 C 14.4375 -19.4375 15.492188 -19.347656 16.453125 -19.171875 C 17.421875 -18.992188 18.507812 -18.691406 19.71875 -18.265625 L 20.15625 -13.84375 C 19.851562 -13.8125 19.570312 -13.796875 19.3125 -13.796875 C 19.175781 -13.910156 19.050781 -14.0625 18.9375 -14.25 C 18.820312 -14.4375 18.664062 -14.71875 18.46875 -15.09375 C 18.375 -15.28125 18.269531 -15.46875 18.15625 -15.65625 C 18.050781 -15.851562 17.957031 -16.003906 17.875 -16.109375 C 16.644531 -17.578125 14.988281 -18.3125 12.90625 -18.3125 C 11.414062 -18.3125 10.082031 -17.941406 8.90625 -17.203125 C 7.726562 -16.472656 6.804688 -15.46875 6.140625 -14.1875 C 5.472656 -12.90625 5.140625 -11.472656 5.140625 -9.890625 C 5.140625 -8.179688 5.46875 -6.640625 6.125 -5.265625 C 6.789062 -3.898438 7.71875 -2.832031 8.90625 -2.0625 C 10.09375 -1.289062 11.457031 -0.90625 13 -0.90625 C 13.800781 -0.90625 14.507812 -0.972656 15.125 -1.109375 C 15.75 -1.253906 16.34375 -1.503906 16.90625 -1.859375 C 17.019531 -2.859375 17.078125 -4.097656 17.078125 -5.578125 C 17.078125 -6.503906 16.941406 -7.34375 16.671875 -8.09375 C 16.566406 -8.40625 16.363281 -8.617188 16.0625 -8.734375 C 15.757812 -8.859375 15.359375 -8.957031 14.859375 -9.03125 C 14.410156 -9.113281 14.097656 -9.191406 13.921875 -9.265625 C 13.921875 -9.410156 13.925781 -9.554688 13.9375 -9.703125 C 13.945312 -9.859375 13.953125 -9.960938 13.953125 -10.015625 L 22.734375 -10.015625 C 22.734375 -9.960938 22.738281 -9.859375 22.75 -9.703125 C 22.757812 -9.554688 22.765625 -9.410156 22.765625 -9.265625 C 22.640625 -9.210938 22.5 -9.160156 22.34375 -9.109375 C 21.875 -8.941406 21.503906 -8.785156 21.234375 -8.640625 C 20.972656 -8.492188 20.75 -8.269531 20.5625 -7.96875 C 20.382812 -7.675781 20.296875 -7.28125 20.296875 -6.78125 Z M 20.296875 -1.390625 "/></g></g><g transform="translate(254.822042, 315.799431)"><g><path d="M 10.1875 -7.9375 C 9.945312 -8.289062 9.742188 -8.550781 9.578125 -8.71875 C 9.421875 -8.882812 9.226562 -9.007812 9 -9.09375 C 8.78125 -9.1875 8.476562 -9.242188 8.09375 -9.265625 L 7.15625 -9.3125 L 7.15625 -3.671875 C 7.15625 -2.972656 7.21875 -2.457031 7.34375 -2.125 C 7.46875 -1.789062 7.632812 -1.566406 7.84375 -1.453125 C 8.050781 -1.347656 8.367188 -1.265625 8.796875 -1.203125 C 9.097656 -1.148438 9.363281 -1.09375 9.59375 -1.03125 C 9.832031 -0.976562 10.078125 -0.890625 10.328125 -0.765625 L 10.296875 0 L 1.03125 0 L 1 -0.765625 C 1.257812 -0.910156 1.503906 -1.015625 1.734375 -1.078125 C 1.960938 -1.140625 2.226562 -1.195312 2.53125 -1.25 C 2.925781 -1.300781 3.21875 -1.382812 3.40625 -1.5 C 3.59375 -1.613281 3.738281 -1.859375 3.84375 -2.234375 C 3.957031 -2.617188 4.015625 -3.226562 4.015625 -4.0625 L 4.015625 -15.15625 C 4.015625 -15.851562 3.953125 -16.375 3.828125 -16.71875 C 3.710938 -17.0625 3.546875 -17.300781 3.328125 -17.4375 C 3.109375 -17.570312 2.765625 -17.710938 2.296875 -17.859375 C 1.796875 -17.992188 1.363281 -18.144531 1 -18.3125 L 1.03125 -19.078125 L 7.78125 -19.078125 C 9.601562 -19.078125 11.195312 -18.992188 12.5625 -18.828125 C 13.9375 -18.660156 15.160156 -18.21875 16.234375 -17.5 C 17.316406 -16.789062 17.859375 -15.691406 17.859375 -14.203125 C 17.859375 -13.285156 17.597656 -12.492188 17.078125 -11.828125 C 16.566406 -11.160156 15.910156 -10.632812 15.109375 -10.25 C 14.304688 -9.875 13.445312 -9.617188 12.53125 -9.484375 C 12.644531 -9.328125 13.222656 -8.515625 14.265625 -7.046875 C 15.035156 -5.953125 15.691406 -5.035156 16.234375 -4.296875 C 16.773438 -3.566406 17.316406 -2.878906 17.859375 -2.234375 C 18.179688 -1.898438 18.46875 -1.632812 18.71875 -1.4375 C 18.976562 -1.238281 19.296875 -1.082031 19.671875 -0.96875 C 20.054688 -0.851562 20.535156 -0.796875 21.109375 -0.796875 L 21.109375 0.03125 C 20.140625 0.257812 19.28125 0.375 18.53125 0.375 C 17.5 0.375 16.550781 0.0546875 15.6875 -0.578125 C 14.820312 -1.210938 14.070312 -1.960938 13.4375 -2.828125 C 12.8125 -3.691406 12.09375 -4.800781 11.28125 -6.15625 C 10.800781 -6.976562 10.4375 -7.570312 10.1875 -7.9375 Z M 7.890625 -10.296875 C 9.140625 -10.296875 10.21875 -10.367188 11.125 -10.515625 C 12.039062 -10.660156 12.820312 -11.003906 13.46875 -11.546875 C 14.113281 -12.097656 14.4375 -12.925781 14.4375 -14.03125 C 14.4375 -15.238281 14.085938 -16.128906 13.390625 -16.703125 C 12.691406 -17.285156 11.875 -17.640625 10.9375 -17.765625 C 10 -17.898438 8.847656 -17.96875 7.484375 -17.96875 L 7.15625 -17.96875 L 7.15625 -10.296875 Z M 7.890625 -10.296875 "/></g></g><g transform="translate(275.871846, 315.799431)"><g><path d="M 11.78125 -19.4375 C 13.613281 -19.4375 15.296875 -19.023438 16.828125 -18.203125 C 18.359375 -17.390625 19.578125 -16.226562 20.484375 -14.71875 C 21.390625 -13.207031 21.84375 -11.46875 21.84375 -9.5 C 21.84375 -7.5625 21.375 -5.84375 20.4375 -4.34375 C 19.507812 -2.84375 18.253906 -1.679688 16.671875 -0.859375 C 15.085938 -0.0351562 13.359375 0.375 11.484375 0.375 C 9.753906 0.375 8.132812 -0.0195312 6.625 -0.8125 C 5.125 -1.601562 3.914062 -2.734375 3 -4.203125 C 2.09375 -5.679688 1.640625 -7.390625 1.640625 -9.328125 C 1.640625 -11.472656 2.117188 -13.304688 3.078125 -14.828125 C 4.046875 -16.347656 5.300781 -17.492188 6.84375 -18.265625 C 8.394531 -19.046875 10.039062 -19.4375 11.78125 -19.4375 Z M 12.265625 -0.75 C 13.429688 -0.75 14.484375 -1.0625 15.421875 -1.6875 C 16.359375 -2.3125 17.09375 -3.210938 17.625 -4.390625 C 18.15625 -5.578125 18.421875 -6.96875 18.421875 -8.5625 C 18.421875 -10.382812 18.117188 -12.035156 17.515625 -13.515625 C 16.910156 -14.992188 16.0625 -16.160156 14.96875 -17.015625 C 13.882812 -17.878906 12.648438 -18.3125 11.265625 -18.3125 C 10.117188 -18.3125 9.070312 -18.015625 8.125 -17.421875 C 7.1875 -16.828125 6.4375 -15.941406 5.875 -14.765625 C 5.320312 -13.597656 5.046875 -12.191406 5.046875 -10.546875 C 5.046875 -8.710938 5.351562 -7.046875 5.96875 -5.546875 C 6.59375 -4.054688 7.453125 -2.882812 8.546875 -2.03125 C 9.648438 -1.175781 10.890625 -0.75 12.265625 -0.75 Z M 12.265625 -0.75 "/></g></g><g transform="translate(299.353289, 315.799431)"><g><path d="M 10.125 -18.3125 C 9.71875 -18.164062 9.195312 -18.03125 8.5625 -17.90625 C 8.039062 -17.789062 7.664062 -17.664062 7.4375 -17.53125 C 7.207031 -17.40625 7.03125 -17.15625 6.90625 -16.78125 C 6.78125 -16.40625 6.71875 -15.804688 6.71875 -14.984375 L 6.71875 -8.734375 C 6.71875 -6.378906 7.191406 -4.535156 8.140625 -3.203125 C 9.097656 -1.867188 10.722656 -1.203125 13.015625 -1.203125 C 17.203125 -1.203125 19.296875 -3.796875 19.296875 -8.984375 L 19.296875 -14.734375 C 19.296875 -15.609375 19.234375 -16.242188 19.109375 -16.640625 C 18.984375 -17.035156 18.796875 -17.3125 18.546875 -17.46875 C 18.296875 -17.625 17.867188 -17.773438 17.265625 -17.921875 C 16.703125 -18.066406 16.238281 -18.203125 15.875 -18.328125 L 15.875 -19.078125 L 23.78125 -19.078125 L 23.796875 -18.3125 C 23.648438 -18.226562 23.492188 -18.164062 23.328125 -18.125 C 23.160156 -18.082031 22.929688 -18.035156 22.640625 -17.984375 C 22.273438 -17.921875 21.976562 -17.859375 21.75 -17.796875 C 21.53125 -17.734375 21.320312 -17.625 21.125 -17.46875 C 20.9375 -17.3125 20.804688 -17.101562 20.734375 -16.84375 C 20.578125 -16.3125 20.5 -15.6875 20.5 -14.96875 C 20.5 -14.5 20.503906 -13.757812 20.515625 -12.75 C 20.535156 -11.726562 20.546875 -10.960938 20.546875 -10.453125 C 20.546875 -8.234375 20.351562 -6.351562 19.96875 -4.8125 C 19.582031 -3.28125 18.765625 -2.03125 17.515625 -1.0625 C 16.273438 -0.101562 14.445312 0.375 12.03125 0.375 C 10.625 0.375 9.3125 0.15625 8.09375 -0.28125 C 6.882812 -0.726562 5.878906 -1.421875 5.078125 -2.359375 C 4.285156 -3.296875 3.816406 -4.46875 3.671875 -5.875 C 3.554688 -6.882812 3.5 -8.171875 3.5 -9.734375 C 3.5 -10.628906 3.515625 -11.515625 3.546875 -12.390625 C 3.566406 -13.566406 3.578125 -14.4375 3.578125 -15 C 3.578125 -15.71875 3.523438 -16.28125 3.421875 -16.6875 C 3.328125 -17.070312 3.085938 -17.363281 2.703125 -17.5625 C 2.316406 -17.757812 1.796875 -17.941406 1.140625 -18.109375 C 0.816406 -18.191406 0.5625 -18.265625 0.375 -18.328125 L 0.421875 -19.078125 L 10.09375 -19.078125 Z M 10.125 -18.3125 "/></g></g><g transform="translate(323.362077, 315.799431)"><g><path d="M 4.109375 -15.109375 C 4.109375 -15.835938 4.046875 -16.375 3.921875 -16.71875 C 3.796875 -17.070312 3.625 -17.316406 3.40625 -17.453125 C 3.1875 -17.597656 2.832031 -17.738281 2.34375 -17.875 C 1.851562 -18.007812 1.410156 -18.160156 1.015625 -18.328125 L 1.046875 -19.078125 L 8.3125 -19.078125 C 10.144531 -19.078125 11.75 -18.972656 13.125 -18.765625 C 14.5 -18.566406 15.695312 -18.078125 16.71875 -17.296875 C 17.75 -16.523438 18.265625 -15.34375 18.265625 -13.75 C 18.265625 -12.476562 17.960938 -11.410156 17.359375 -10.546875 C 16.753906 -9.691406 15.941406 -9.054688 14.921875 -8.640625 C 13.898438 -8.234375 12.765625 -8.03125 11.515625 -8.03125 C 11.285156 -8.03125 10.921875 -8.066406 10.421875 -8.140625 C 9.929688 -8.222656 9.484375 -8.335938 9.078125 -8.484375 C 8.671875 -8.628906 8.46875 -8.800781 8.46875 -9 C 8.46875 -9.175781 8.679688 -9.265625 9.109375 -9.265625 L 9.328125 -9.265625 C 10.515625 -9.265625 11.5 -9.367188 12.28125 -9.578125 C 13.070312 -9.785156 13.695312 -10.203125 14.15625 -10.828125 C 14.625 -11.460938 14.859375 -12.367188 14.859375 -13.546875 C 14.859375 -14.628906 14.554688 -15.503906 13.953125 -16.171875 C 13.359375 -16.847656 12.597656 -17.328125 11.671875 -17.609375 C 10.742188 -17.898438 9.75 -18.046875 8.6875 -18.046875 C 8.257812 -18.046875 7.785156 -18.019531 7.265625 -17.96875 L 7.265625 -4.03125 C 7.265625 -3.195312 7.316406 -2.59375 7.421875 -2.21875 C 7.535156 -1.851562 7.691406 -1.609375 7.890625 -1.484375 C 8.097656 -1.367188 8.4375 -1.273438 8.90625 -1.203125 C 9.539062 -1.097656 10.101562 -0.953125 10.59375 -0.765625 L 10.5625 0 L 1.046875 0 L 1 -0.765625 L 1.46875 -0.890625 C 2.039062 -1.046875 2.5 -1.195312 2.84375 -1.34375 C 3.195312 -1.5 3.492188 -1.726562 3.734375 -2.03125 C 3.984375 -2.332031 4.109375 -2.738281 4.109375 -3.25 Z M 4.109375 -15.109375 "/></g></g></g></svg>